# xmcd
#
# Track frame offsets:
#	150
#	23744
#	45005
#	63537
#	83038
#	104746
#	127282
#	144526
#	166140
#	189520
#	207043
#	233640
#	258025
#	272874
#	294822
#
# Disc length: 4224
#
# Revision: 1
# Processed by: cddbd v1.5.1PL0 Copyright (c) Steve Scherf et al.
# Submitted via: ExactAudioCopy v0.95a4
# Normalized: r0:TRMNUM
#
DISCID=cb107e0f
DTITLE=未知艺术家 - 地下铁
DYEAR=2001
DGENRE=Pop
TTITLE0=地下铁
TTITLE1=喜欢原谅别人
TTITLE2=不能平凡
TTITLE3=流浪狗
TTITLE4=你懂不懂
TTITLE5=爱情男女
TTITLE6=我爱了另外一个人
TTITLE7=擦身而过
TTITLE8=至理名言
TTITLE9=男人猫
TTITLE10=下沙
TTITLE11=只是那个人
TTITLE12=寂寞化石
TTITLE13=荒芜心田
TTITLE14=21个人
EXTD=
EXTT0=
EXTT1=
EXTT2=
EXTT3=
EXTT4=
EXTT5=
EXTT6=
EXTT7=
EXTT8=
EXTT9=
EXTT10=
EXTT11=
EXTT12=
EXTT13=
EXTT14=
PLAYORDER=
